<svg width="40" height="40" viewBox="0 0 40 40" fill="none" xmlns="http://www.w3.org/2000/svg">
<rect width="40" height="40" rx="8" fill="black"/>
<path d="M19.673 32.346C26.6721 32.346 32.346 26.6721 32.346 19.673C32.346 12.6739 26.6721 7 19.673 7C12.6739 7 7 12.6739 7 19.673C7 26.6721 12.6739 32.346 19.673 32.346Z" fill="white"/>
<path d="M19.6728 9.46606C14.0358 9.46606 9.4668 14.0361 9.4668 19.6721C9.4668 25.3081 14.0368 29.8791 19.6728 29.8791C25.3088 29.8791 29.8788 25.3091 29.8788 19.6721C29.8788 14.0351 25.3098 9.46606 19.6728 9.46606ZM19.6728 23.6871C17.4558 23.6871 15.6578 21.8891 15.6578 19.6721C15.6578 17.4551 17.4558 15.6571 19.6728 15.6571C21.8898 15.6571 23.6878 17.4551 23.6878 19.6721C23.6878 21.8901 21.8908 23.6871 19.6728 23.6871Z" fill="black"/>
<path d="M19.6728 20.544C20.1538 20.544 20.5438 20.154 20.5438 19.673C20.5438 19.192 20.1538 18.802 19.6728 18.802C19.1917 18.802 18.8018 19.192 18.8018 19.673C18.8018 20.154 19.1917 20.544 19.6728 20.544Z" fill="black"/>
<path d="M14.7931 19.465C14.9021 16.863 17.0451 14.787 19.6731 14.787C22.3011 14.787 24.4451 16.863 24.5531 19.465H29.1001C28.9891 14.352 24.8131 10.24 19.6731 10.24C14.5331 10.24 10.3561 14.352 10.2461 19.465H14.7931Z" fill="url(#paint0_linear_2036:96736)"/>
<path d="M19.6729 10.2419V14.7889C22.3019 14.8219 24.4919 16.9309 24.5559 19.5529H29.1029C29.0389 14.4199 24.8139 10.2749 19.6729 10.2419Z" fill="url(#paint1_linear_2036:96736)"/>
<path d="M19.6731 10.2419V14.7889C17.0441 14.8219 14.8561 16.9309 14.7931 19.5529H10.2461C10.3101 14.4199 14.5331 10.2749 19.6731 10.2419Z" fill="url(#paint2_linear_2036:96736)"/>
<path d="M26.3946 27.3501C24.5986 28.9231 22.2486 29.8791 19.6736 29.8791C19.6636 29.8791 19.6536 29.8781 19.6436 29.8781V32.3451C19.6536 32.3451 19.6636 32.3461 19.6736 32.3461C22.8676 32.3461 25.7836 31.1621 28.0126 29.2121C27.4776 28.5861 26.9206 27.9801 26.3946 27.3501Z" fill="url(#paint3_linear_2036:96736)"/>
<path d="M32.2009 30.7549L25.3639 23.9029C25.1619 23.6359 24.8429 23.4619 24.4829 23.4619C23.8729 23.4619 23.3789 23.9559 23.3789 24.5659C23.3789 24.8629 23.4969 25.1319 23.6879 25.3309C23.7009 25.3439 23.7139 25.3569 23.7279 25.3699L30.6949 32.1819L32.2009 30.7549Z" fill="white"/>
<defs>
<linearGradient id="paint0_linear_2036:96736" x1="10.2463" y1="14.8526" x2="29.1009" y2="14.8526" gradientUnits="userSpaceOnUse">
<stop/>
<stop offset="0.5108" stop-color="#DFDFDF"/>
<stop offset="0.8763"/>
</linearGradient>
<linearGradient id="paint1_linear_2036:96736" x1="19.379" y1="10.9884" x2="26.7713" y2="17.4311" gradientUnits="userSpaceOnUse">
<stop offset="0.0029" stop-color="#B5B5B5" stop-opacity="0"/>
<stop offset="0.1244" stop-color="#969696" stop-opacity="0.1632"/>
<stop offset="0.5553" stop-color="#2B2B2B" stop-opacity="0.7421"/>
<stop offset="0.7473"/>
</linearGradient>
<linearGradient id="paint2_linear_2036:96736" x1="19.9687" y1="10.9891" x2="12.5773" y2="17.4311" gradientUnits="userSpaceOnUse">
<stop offset="0.0029" stop-color="#B5B5B5" stop-opacity="0"/>
<stop offset="0.1244" stop-color="#969696" stop-opacity="0.1632"/>
<stop offset="0.5553" stop-color="#2B2B2B" stop-opacity="0.7421"/>
<stop offset="0.7473"/>
</linearGradient>
<linearGradient id="paint3_linear_2036:96736" x1="20.8541" y1="31.6267" x2="27.771" y2="26.9152" gradientUnits="userSpaceOnUse">
<stop offset="0.0029" stop-color="#B5B5B5" stop-opacity="0"/>
<stop offset="0.0486" stop-color="#A8A8A8" stop-opacity="0.0514"/>
<stop offset="0.2682" stop-color="#6C6C6C" stop-opacity="0.2982"/>
<stop offset="0.4701" stop-color="#3E3E3E" stop-opacity="0.5252"/>
<stop offset="0.6478" stop-color="#1C1C1C" stop-opacity="0.725"/>
<stop offset="0.7947" stop-color="#070707" stop-opacity="0.8901"/>
<stop offset="0.8925"/>
</linearGradient>
</defs>
</svg>
