<svg width="40" height="40" viewBox="0 0 40 40" fill="none" xmlns="http://www.w3.org/2000/svg">
<rect width="40" height="40" rx="8" fill="url(#paint0_linear_2036:96701)"/>
<path fill-rule="evenodd" clip-rule="evenodd" d="M30.5401 18.327C31.0063 18.1319 31.523 18.0235 32.0614 18.0235C34.2366 18.0235 36 19.7832 36 21.9548C36 24.1301 34.2366 25.8717 32.065 25.8717H21.1562C20.9213 25.8501 20.7334 25.6622 20.7298 25.4201V12.9323C20.7334 12.7046 20.8129 12.5854 21.1092 12.4697C21.8753 12.1734 22.7389 12 23.6278 12C27.252 12 30.2258 14.7823 30.5401 18.327ZM20.1485 12.9831C20.0835 12.9434 20.0076 12.9217 19.9281 12.9217C19.8233 12.9217 19.7293 12.9578 19.6535 13.0192C19.5595 13.0987 19.4945 13.218 19.4945 13.3517V13.395L19.3174 22.2153L19.4078 23.8449L19.4945 25.4312C19.4981 25.6661 19.6932 25.8612 19.9281 25.8612C20.163 25.8612 20.3581 25.6661 20.3617 25.4276V25.4312L20.5532 22.2153L20.3617 13.3481C20.3581 13.1963 20.2714 13.059 20.1485 12.9831ZM18.5805 13.6836C18.6636 13.6836 18.7395 13.7089 18.8046 13.7523C18.913 13.8281 18.9852 13.951 18.9925 14.0883L19.1623 22.2148L19.0069 25.1561L18.9888 25.4777C18.9852 25.5897 18.9382 25.6908 18.866 25.7631C18.7901 25.8354 18.6925 25.8824 18.5805 25.8824C18.4541 25.8824 18.3457 25.8245 18.2698 25.7342C18.2156 25.6692 18.1794 25.5824 18.1758 25.4921V25.4777L18.0241 22.2112L18.1758 14.1642V14.0883C18.1794 13.9474 18.2517 13.8209 18.3637 13.7486C18.4252 13.7089 18.501 13.6836 18.5805 13.6836ZM14.8872 14.9409C14.88 14.7603 14.7391 14.6193 14.562 14.6193C14.385 14.6193 14.244 14.7603 14.2368 14.9409L14.0345 22.2146L14.2368 25.5534C14.244 25.7305 14.385 25.875 14.562 25.875C14.7391 25.875 14.88 25.7341 14.8872 25.5534L15.1149 22.2146L14.8872 14.9409ZM12.9465 15.1797C12.9501 15.0135 13.0802 14.8834 13.2428 14.8834C13.4018 14.8834 13.5319 15.0135 13.5391 15.1833L13.7848 22.2221L13.5391 25.5826V25.579C13.5319 25.7416 13.4018 25.8717 13.2428 25.8717C13.0802 25.8717 12.9501 25.7416 12.9465 25.579L12.7297 22.2185L12.9465 15.1797ZM11.9165 15.4691C11.7719 15.4691 11.6527 15.5847 11.6455 15.7365L11.4106 22.2333L11.6455 25.6263C11.6527 25.7745 11.7683 25.8937 11.9165 25.8937C12.061 25.8937 12.1803 25.7781 12.1875 25.6263L12.4513 22.2297L12.1875 15.7329C12.1766 15.5884 12.0574 15.4691 11.9165 15.4691ZM10.3952 16.9252C10.4024 16.7915 10.5072 16.6868 10.6372 16.6868C10.7637 16.6868 10.8721 16.7915 10.8793 16.9252L11.1612 22.2116L10.8793 25.6262C10.8721 25.7599 10.7637 25.8647 10.6372 25.8647C10.5072 25.8647 10.4024 25.7599 10.3952 25.6262L10.1458 22.2116L10.3952 16.9252ZM7.88477 18.7101C7.89199 18.6053 7.9751 18.5258 8.07266 18.5258C8.17022 18.5258 8.24972 18.6053 8.26056 18.7065L8.58215 22.2115L8.26056 25.6008C8.24972 25.7056 8.17022 25.7851 8.07266 25.7851C7.9751 25.7851 7.89199 25.7056 7.88477 25.6008L7.60292 22.2115L7.88477 18.7101ZM6.80751 18.6451C6.72441 18.6451 6.65575 18.7102 6.64852 18.8041L6.34861 22.2115L6.64852 25.4961C6.65575 25.5864 6.72441 25.6551 6.80751 25.6551C6.89062 25.6551 6.95927 25.59 6.9665 25.4997L7.30616 22.2151L6.9665 18.8077C6.95566 18.7102 6.89062 18.6451 6.80751 18.6451ZM5.41248 19.3388C5.42332 19.2629 5.47752 19.2087 5.54617 19.2087C5.61483 19.2087 5.66903 19.2629 5.67987 19.3388L6.03759 22.2114L5.67987 25.0226C5.66903 25.0985 5.61483 25.1527 5.54617 25.1527C5.47752 25.1527 5.42332 25.0985 5.41248 25.0226L5.09812 22.2114L5.41248 19.3388ZM4.23487 20.4371C4.24571 20.3612 4.29991 20.3106 4.36495 20.3106C4.42999 20.3106 4.48419 20.3612 4.49142 20.4335L4.76965 22.2113L4.49142 23.9601C4.48419 24.0324 4.42999 24.083 4.36495 24.083C4.2963 24.083 4.24571 24.0324 4.23487 23.9601L4 22.2149L4.23487 20.4371ZM9.56509 18.963C9.55786 18.8438 9.46392 18.7535 9.3519 18.7535C9.23627 18.7535 9.14232 18.8438 9.1351 18.9666L8.86771 22.2151L9.1351 25.6297C9.14232 25.749 9.23627 25.8429 9.3519 25.8429C9.46753 25.8429 9.55786 25.7526 9.56509 25.6297L9.86861 22.2151L9.56509 18.963ZM15.5416 15.1289C15.5452 14.9301 15.7006 14.7784 15.8921 14.7784C16.0836 14.7784 16.2354 14.9301 16.2426 15.1253L16.4522 22.2147L16.2426 25.5246V25.5209C16.239 25.7161 16.0836 25.8714 15.8921 25.8714C15.7006 25.8714 15.5452 25.7197 15.5416 25.5246L15.3574 22.2183L15.5416 15.1289ZM17.2314 15.0101C17.0218 15.0101 16.8556 15.1763 16.852 15.3858L16.6821 22.2151L16.852 25.4997C16.8556 25.7093 17.0218 25.8755 17.2314 25.8755C17.4373 25.8755 17.6072 25.7093 17.6108 25.4997V25.5033L17.8023 22.2151L17.6108 15.3858C17.6035 15.1763 17.4373 15.0101 17.2314 15.0101Z" fill="white"/>
<defs>
<linearGradient id="paint0_linear_2036:96701" x1="20" y1="0" x2="20" y2="40" gradientUnits="userSpaceOnUse">
<stop stop-color="#FF9B00"/>
<stop offset="1" stop-color="#FF1F00"/>
</linearGradient>
</defs>
</svg>
