<svg width="96" height="55" viewBox="0 0 96 55" fill="none" xmlns="http://www.w3.org/2000/svg">
    <path fill-rule="evenodd" clip-rule="evenodd" d="M55.7102 10.3258C54.8897 11.6742 55.566 13.3721 57.0125 14.0039C58.459 14.6356 60.1235 13.9546 61.0102 12.6488C62.2823 10.7753 63.9571 9.1938 65.9255 8.02781C68.7183 6.37342 71.9608 5.63925 75.1939 5.9292C78.427 6.21915 81.487 7.51854 83.9409 9.64346C86.3948 11.7684 88.1184 14.6112 88.8675 17.7697C89.6167 20.9281 89.3536 24.2422 88.1155 27.2429C86.8774 30.2435 84.727 32.7789 81.9685 34.49C79.2101 36.2012 75.9834 37.0015 72.745 36.7777C70.4626 36.62 68.256 35.9592 66.2779 34.8566C64.8992 34.0881 63.1062 34.2273 62.0975 35.4414C61.0889 36.6555 61.2472 38.4763 62.5859 39.3125C65.5198 41.1452 68.8711 42.2396 72.3509 42.4801C76.7856 42.7865 81.2042 41.6905 84.9816 39.3473C88.7591 37.004 91.7039 33.5322 93.3994 29.423C95.0948 25.3139 95.4551 20.7756 94.4292 16.4504C93.4032 12.1253 91.0431 8.23228 87.6827 5.3224C84.3223 2.41253 80.1319 0.633146 75.7044 0.236087C71.277 -0.160971 66.8369 0.8444 63.0123 3.10992C60.0112 4.88767 57.5084 7.37071 55.7102 10.3258ZM32.6676 15.8473C33.9944 16.7023 34.127 18.5252 33.1014 19.7249C32.0757 20.9247 30.2809 21.0386 28.9132 20.2507C26.9508 19.1204 24.7537 18.4285 22.4738 18.2387C19.2389 17.9693 16.0012 18.724 13.2189 20.3961C10.4367 22.0682 8.25068 24.5729 6.97038 27.5559C5.69008 30.5388 5.3803 33.8488 6.08488 37.0175C6.78946 40.1862 8.47272 43.0531 10.8964 45.2124C13.3201 47.3717 16.3616 48.7141 19.5903 49.0496C22.819 49.3851 26.0714 48.6967 28.8873 47.0818C30.8719 45.9437 32.5688 44.386 33.8673 42.5306C34.7723 41.2374 36.4462 40.58 37.8837 41.232C39.3211 41.8841 39.9734 43.5914 39.134 44.9281C37.2942 47.8575 34.7567 50.3051 31.7309 52.0403C27.8748 54.2517 23.4209 55.1944 18.9995 54.7349C14.5781 54.2755 10.4132 52.4372 7.09414 49.4802C3.7751 46.5233 1.47004 42.5974 0.50519 38.2582C-0.459666 33.919 -0.0354532 29.3862 1.71779 25.3014C3.47104 21.2166 6.46452 17.7866 10.2746 15.4968C14.0847 13.207 18.5184 12.1735 22.9482 12.5424C26.4243 12.8319 29.7599 13.9735 32.6676 15.8473Z" fill="#252E39"/>
    <path fill-rule="evenodd" clip-rule="evenodd" d="M49.3183 19.7015C49.2964 19.7195 49.2699 19.7434 49.2385 19.7748C49.2432 19.7701 49.243 19.7704 49.239 19.7775C49.2224 19.8065 49.1409 19.9497 49.0671 20.3272C48.9835 20.7551 48.9385 21.3278 48.9272 22.0349C48.9094 23.1472 48.9747 24.4488 49.044 25.8307C49.0632 26.2141 49.0828 26.6036 49.1009 26.997C49.1824 28.7607 49.236 30.605 49.0602 32.0998C48.9725 32.8463 48.8197 33.5837 48.5398 34.2087C48.2586 34.837 47.7912 35.4735 47.0158 35.7837C45.4647 36.4042 44.2065 35.4611 43.4229 34.5837C42.6094 33.673 41.8704 32.374 41.2112 31.1817C41.1262 31.0279 41.0423 30.8754 40.9593 30.7247C40.3653 29.6457 39.819 28.6533 39.2636 27.886C38.9507 27.4536 38.6779 27.1552 38.4461 26.9736C38.2174 26.7943 38.1076 26.7891 38.0903 26.7891C38.0732 26.7891 38.0598 26.7897 38.0496 26.7905C38.0117 26.8359 37.9371 26.9486 37.804 27.2304C37.7651 27.3129 37.7234 27.4052 37.6781 27.5058C37.3927 28.1384 36.959 29.0995 36.1071 30.0289C34.0852 32.2346 30.0048 34.054 20.5332 34.054V31.6323C29.8295 31.6323 33.0141 29.8193 34.322 28.3925C34.8939 27.7685 35.1652 27.175 35.452 26.5476C35.5049 26.4318 35.5583 26.3149 35.6143 26.1964C35.777 25.8517 36.0137 25.3796 36.4054 25.0099C36.8588 24.582 37.4287 24.3674 38.0903 24.3674C38.8297 24.3674 39.453 24.6858 39.9402 25.0677C40.4243 25.4473 40.8502 25.9478 41.2254 26.4662C41.8759 27.3651 42.5028 28.5053 43.0848 29.5638C43.1676 29.7145 43.2496 29.8635 43.3306 30.01C44.0145 31.247 44.6281 32.2978 45.229 32.9706C45.8393 33.6538 46.0631 33.558 46.112 33.5371C46.1137 33.5364 46.1151 33.5358 46.1164 33.5353C46.1175 33.5348 46.1205 33.5336 46.1267 33.5291C46.1334 33.5244 46.1466 33.5138 46.1654 33.4929C46.2049 33.4492 46.2639 33.3659 46.3295 33.2193C46.4657 32.9152 46.5803 32.4534 46.6551 31.817C46.8046 30.546 46.7641 28.8897 46.6818 27.1087C46.665 26.7442 46.6464 26.3742 46.6277 26.0029C46.5576 24.6087 46.4866 23.197 46.5058 21.9961C46.5181 21.2323 46.5667 20.4958 46.6904 19.8627C46.8061 19.2708 47.0234 18.5651 47.5262 18.0624C47.9595 17.6291 48.5092 17.2882 49.1756 17.2456C49.8425 17.2031 50.3949 17.4742 50.8023 17.7877C51.5519 18.3646 52.1633 19.3662 52.6572 20.2337C52.8418 20.5581 53.0172 20.8775 53.1891 21.1907C53.5309 21.8133 53.8591 22.411 54.2191 22.9727C54.7707 23.8334 55.2244 24.3158 55.5834 24.4952C55.6527 24.5299 55.8703 24.5967 56.3258 24.6091C56.7582 24.6208 57.3065 24.5818 57.9614 24.4921C59.2703 24.3128 60.8801 23.9488 62.6066 23.4984C64.3274 23.0495 66.1269 22.5247 67.8134 22.032L67.9131 22.0029C69.5506 21.5245 71.0906 21.0746 72.3053 20.7709L72.8926 23.1202C71.7247 23.4122 70.2228 23.851 68.5547 24.3384L68.4925 24.3565C66.8113 24.8477 64.9783 25.3824 63.2179 25.8416C61.4634 26.2994 59.7433 26.6922 58.2901 26.8913C57.5638 26.9908 56.873 27.0465 56.2601 27.0298C55.6702 27.0138 55.0365 26.9293 54.5004 26.6613C53.5056 26.1639 52.7527 25.1727 52.1802 24.2795C51.7762 23.6492 51.3773 22.9233 51.0134 22.2611C50.8521 21.9675 50.6976 21.6865 50.5526 21.4318C50.0227 20.5009 49.6283 19.94 49.3253 19.7068C49.3229 19.705 49.3205 19.7032 49.3183 19.7015ZM49.2419 19.6528C49.2418 19.6527 49.2429 19.6531 49.245 19.654C49.2429 19.6533 49.2419 19.6528 49.2419 19.6528ZM49.3941 19.6494C49.3941 19.6495 49.3925 19.6504 49.3892 19.6516C49.3925 19.6499 49.3941 19.6493 49.3941 19.6494ZM38.0229 26.7942C38.0229 26.7942 38.0233 26.794 38.0242 26.7938L38.0229 26.7942Z" fill="url(#paint0_linear_2484_117836)"/>
    <path fill-rule="evenodd" clip-rule="evenodd" d="M72.5979 28.0003C76.2759 28.0003 79.2575 25.0187 79.2575 21.3407C79.2575 17.6627 76.2759 14.6812 72.5979 14.6812C68.9199 14.6812 65.9384 17.6627 65.9384 21.3407C65.9384 25.0187 68.9199 28.0003 72.5979 28.0003ZM20.5326 40.1086C24.2106 40.1086 27.1922 37.127 27.1922 33.449C27.1922 29.771 24.2106 26.7894 20.5326 26.7894C16.8546 26.7894 13.873 29.771 13.873 33.449C13.873 37.127 16.8546 40.1086 20.5326 40.1086Z" fill="url(#paint1_linear_2484_117836)"/>
    <defs>
        <linearGradient id="paint0_linear_2484_117836" x1="32.0241" y1="14.1764" x2="48.2328" y2="44.5128" gradientUnits="userSpaceOnUse">
            <stop stop-color="#F5A239"/>
            <stop offset="0.45429" stop-color="#F64752"/>
            <stop offset="1" stop-color="#9D00BB"/>
        </linearGradient>
        <linearGradient id="paint1_linear_2484_117836" x1="28.2224" y1="10.5232" x2="51.193" y2="50.0954" gradientUnits="userSpaceOnUse">
            <stop stop-color="#F5A239"/>
            <stop offset="0.45429" stop-color="#F64752"/>
            <stop offset="1" stop-color="#9D00BB"/>
        </linearGradient>
    </defs>
</svg>
