<svg width="83" height="81" viewBox="0 0 83 81" fill="none" xmlns="http://www.w3.org/2000/svg">
    <path d="M16.6138 44.1523L0.148438 44.1523L8.75495 53.8818L16.6138 44.1523Z" fill="#252E39"/>
    <path d="M8.40341 48.2274C6.99391 48.3705 5.72522 47.3432 5.68822 45.9269C5.58572 42.0036 6.15911 38.0853 7.38955 34.3451C8.88768 29.7912 11.3264 25.6031 14.5475 22.0525C17.7686 18.5019 21.7001 15.668 26.087 13.7348C30.4739 11.8016 35.2182 10.8122 40.0121 10.8307C44.8061 10.8493 49.5426 11.8754 53.9144 13.8426C58.2862 15.8097 62.1956 18.6739 65.3891 22.2493C68.5826 25.8248 70.9888 30.0316 72.4516 34.597C73.6531 38.3466 74.1961 42.2693 74.0632 46.1917C74.0153 47.6076 72.7387 48.625 71.3303 48.4711C69.922 48.3172 68.917 47.0498 68.9462 45.6333C69.0123 42.4277 68.5478 39.2271 67.5658 36.1625C66.3225 32.2819 64.2772 28.7061 61.5627 25.667C58.8482 22.6278 55.5252 20.1933 51.8092 18.5212C48.0931 16.8492 44.0671 15.977 39.9923 15.9612C35.9174 15.9454 31.8848 16.7864 28.1559 18.4296C24.427 20.0729 21.0852 22.4816 18.3473 25.4997C15.6094 28.5177 13.5365 32.0775 12.2631 35.9484C11.2574 39.0053 10.7681 42.2022 10.8094 45.4082C10.8277 46.8248 9.81292 48.0844 8.40341 48.2274Z" fill="#252E39"/>
    <path d="M70.3282 53.619C71.6918 54.0034 72.4947 55.4247 72.0092 56.7556C71.6225 57.8158 71.1835 58.8563 70.6938 59.8731C70.0792 61.1496 68.5008 61.5661 67.274 60.8575C66.0472 60.1489 65.6383 58.584 66.236 57.2995C66.5324 56.6624 66.8057 56.0149 67.0552 55.358C67.5582 54.0336 68.9646 53.2345 70.3282 53.619Z" fill="#252E39"/>
    <path d="M64.5893 64.7865C65.6959 65.671 65.8828 67.2927 64.9178 68.33C64.1479 69.1576 63.3375 69.9465 62.4894 70.6939C61.4265 71.6306 59.8104 71.4001 58.956 70.27C58.1016 69.1399 58.3339 67.5392 59.3843 66.5885C59.9064 66.116 60.4112 65.6246 60.8976 65.1155C61.8762 64.0911 63.4826 63.9019 64.5893 64.7865Z" fill="#252E39"/>
    <path d="M55.4499 72.5771C56.1471 73.8104 55.7161 75.3849 54.434 75.9878C53.4021 76.473 52.3466 76.9062 51.2715 77.286C49.9356 77.7578 48.5227 76.9403 48.1522 75.5729C47.7818 74.2054 48.5953 72.8074 49.9248 72.3179C50.5934 72.0717 51.2528 71.801 51.9016 71.5064C53.1916 70.9205 54.7527 71.3438 55.4499 72.5771Z" fill="#252E39"/>
    <path d="M44.1549 76.3833C44.3464 77.787 43.3635 79.0903 41.9494 79.1761C40.8113 79.2452 39.6704 79.2573 38.531 79.2124C37.1154 79.1566 36.105 77.8744 36.2667 76.467C36.4284 75.0595 37.7013 74.0615 39.1176 74.0985C39.8299 74.1172 40.5427 74.1096 41.2544 74.0759C42.6696 74.0088 43.9634 74.9795 44.1549 76.3833Z" fill="#252E39"/>
    <path fill-rule="evenodd" clip-rule="evenodd" d="M39.7392 30.1733C37.8618 30.1733 36.3398 31.6953 36.3398 33.5727V46.3204C36.3398 47.2911 36.7467 48.1668 37.3992 48.7862C37.7381 49.1512 38.1627 49.4471 38.6581 49.6396L50.54 54.2573C52.2899 54.9373 54.2598 54.07 54.9399 52.3201C55.62 50.5702 54.7527 48.6003 53.0028 47.9202L43.1386 44.0867V33.5727C43.1386 31.6953 41.6166 30.1733 39.7392 30.1733Z" fill="url(#paint0_linear_2484_117894)"/>
    <defs>
        <linearGradient id="paint0_linear_2484_117894" x1="40.4727" y1="26.1972" x2="61.1553" y2="36.9286" gradientUnits="userSpaceOnUse">
            <stop stop-color="#F5A239"/>
            <stop offset="0.45429" stop-color="#F64752"/>
            <stop offset="1" stop-color="#9D00BB"/>
        </linearGradient>
    </defs>
</svg>
