<svg width="93" height="69" viewBox="0 0 93 69" fill="none" xmlns="http://www.w3.org/2000/svg">
    <path d="M24.0578 18.7787C24.5587 18.3475 25.3201 18.401 25.697 18.9439C27.047 20.8886 27.7705 23.2117 27.7521 25.5983C27.7307 28.3856 26.6988 31.0706 24.8481 33.1549C22.9973 35.2392 20.4533 36.5813 17.6881 36.9323C14.9229 37.2833 12.1242 36.6193 9.81142 35.0635C7.49862 33.5076 5.82872 31.1657 5.11158 28.4721C4.39444 25.7785 4.67875 22.9162 5.91176 20.4164C7.14477 17.9165 9.24275 15.9488 11.8164 14.8784C14.0202 13.9618 16.4445 13.7564 18.7547 14.2738C19.3996 14.4183 19.7361 15.1034 19.5255 15.7299C19.315 16.3563 18.6368 16.6851 17.9882 16.5583C16.232 16.2149 14.404 16.3943 12.7355 17.0882C10.6968 17.9362 9.03495 19.4949 8.05824 21.4751C7.08153 23.4553 6.85632 25.7226 7.42439 27.8563C7.99246 29.99 9.31525 31.8452 11.1473 33.0776C12.9794 34.31 15.1963 34.836 17.3867 34.558C19.5771 34.28 21.5924 33.2168 23.0584 31.5657C24.5245 29.9147 25.3418 27.7879 25.3588 25.5799C25.3727 23.773 24.8498 22.0121 23.8699 20.5149C23.508 19.9619 23.5569 19.2099 24.0578 18.7787Z" fill="#252E39"/>
    <path d="M31.3105 56.2952C30.7568 56.6074 30.05 56.4133 29.7852 55.8355C28.569 53.1814 28.2262 50.1981 28.8243 47.3203C29.5008 44.0655 31.3351 41.1665 33.9867 39.1614C36.6384 37.1563 39.9273 36.1812 43.2433 36.417C46.5594 36.6527 49.6773 38.0834 52.0185 40.4435C54.3598 42.8036 55.7655 45.9328 55.9747 49.2506C56.1839 52.5684 55.1824 55.8495 53.1562 58.485C51.1299 61.1205 48.2164 62.9314 44.9562 63.5819C42.0737 64.157 39.0932 63.7902 36.449 62.5528C35.8733 62.2834 35.6849 61.5751 36.0016 61.0239C36.3182 60.4728 37.0199 60.2886 37.6001 60.5482C39.7569 61.5136 42.17 61.7905 44.5059 61.3245C47.2195 60.7831 49.6447 59.2757 51.3313 57.082C53.018 54.8882 53.8515 52.1572 53.6774 49.3955C53.5033 46.6338 52.3332 44.0291 50.3844 42.0646C48.4356 40.1001 45.8403 38.9092 43.0801 38.713C40.3199 38.5167 37.5822 39.3284 35.3751 40.9974C33.1679 42.6664 31.6411 45.0795 31.078 47.7887C30.5933 50.1207 30.8509 52.536 31.799 54.7005C32.054 55.2827 31.8642 55.9829 31.3105 56.2952Z" fill="#252E39"/>
    <circle cx="74.9609" cy="18.2172" r="16.1199" stroke="#252E39" stroke-width="3.83808"/>
    <line x1="23.9245" y1="32.3368" x2="33.1359" y2="40.7805" stroke="#252E39" stroke-width="2.30285"/>
    <line x1="51.5022" y1="41.5828" x2="63.0165" y2="30.0685" stroke="#252E39" stroke-width="2.30285"/>
    <path fill-rule="evenodd" clip-rule="evenodd" d="M48.36 50.0463C48.36 58.2706 36.0781 58.2706 36.0781 50.0463C36.0781 41.8947 48.36 41.8947 48.36 50.0463Z" fill="url(#paint0_linear_2484_117866)"/>
    <path fill-rule="evenodd" clip-rule="evenodd" d="M85.9738 18.1679C85.9738 33.0744 63.7129 33.0744 63.7129 18.1679C63.7129 3.39326 85.9738 3.39326 85.9738 18.1679Z" fill="url(#paint1_linear_2484_117866)"/>
    <defs>
        <linearGradient id="paint0_linear_2484_117866" x1="38.7735" y1="41.9243" x2="50.5901" y2="49.8408" gradientUnits="userSpaceOnUse">
            <stop stop-color="#F5A239"/>
            <stop offset="0.45429" stop-color="#F64752"/>
            <stop offset="1" stop-color="#9D00BB"/>
        </linearGradient>
        <linearGradient id="paint1_linear_2484_117866" x1="68.5983" y1="3.44677" x2="90.0158" y2="17.7956" gradientUnits="userSpaceOnUse">
            <stop stop-color="#F5A239"/>
            <stop offset="0.45429" stop-color="#F64752"/>
            <stop offset="1" stop-color="#9D00BB"/>
        </linearGradient>
    </defs>
</svg>
