<svg width="105" height="105" viewBox="0 0 105 105" fill="none" xmlns="http://www.w3.org/2000/svg">
    <path fill-rule="evenodd" clip-rule="evenodd" d="M62.611 53.2846C62.611 67.7695 40.6914 67.7695 40.6914 53.2846C40.6914 38.9279 62.611 38.9279 62.611 53.2846Z" fill="url(#paint0_linear_2484_117852)"/>
    <path d="M52.3606 30.7855V15.4204L43.2812 23.4518L52.3606 30.7855Z" fill="#252E39"/>
    <path d="M50.9656 90.8489V75.4839L60.0449 83.5153L50.9656 90.8489Z" fill="#252E39"/>
    <path d="M48.4564 22.8248C48.3194 21.4741 49.3039 20.2583 50.6611 20.2228C55.7969 20.0886 60.9047 21.1636 65.567 23.3756C70.9714 25.9397 75.571 29.9339 78.8676 34.9253C82.1642 39.9168 84.0319 45.7152 84.2685 51.6924C84.4726 56.8488 83.456 61.9685 81.3164 66.6393C80.751 67.8736 79.2463 68.3018 78.0578 67.6455C76.8693 66.9891 76.4488 65.4972 76.9978 64.2555C78.713 60.3765 79.5244 56.1464 79.3558 51.8868C79.1547 46.8063 77.5671 41.8776 74.765 37.6348C71.963 33.3921 68.0532 29.997 63.4595 27.8176C59.6081 25.9903 55.3991 25.0758 51.1581 25.1305C49.8006 25.148 48.5935 24.1755 48.4564 22.8248Z" fill="#252E39"/>
    <path d="M54.5896 83.1516C54.7272 84.5023 53.7431 85.7185 52.386 85.7545C47.2502 85.8906 42.142 84.8176 37.4789 82.6074C32.0735 80.0453 27.4723 76.0529 24.1738 71.0627C20.8754 66.0725 19.0054 60.2748 18.7665 54.2977C18.5605 49.1414 19.5751 44.0212 21.7129 39.3497C22.2779 38.1151 23.7824 37.6864 24.9712 38.3423C26.1599 38.9981 26.581 40.4899 26.0324 41.7318C24.3187 45.6115 23.5089 49.8419 23.6792 54.1014C23.8822 59.1819 25.4717 64.1099 28.2754 68.3516C31.0791 72.5933 34.9901 75.9869 39.5846 78.1646C43.4367 79.9904 47.6461 80.9032 51.887 80.847C53.2446 80.8289 54.452 81.8009 54.5896 83.1516Z" fill="#252E39"/>
    <defs>
        <linearGradient id="paint0_linear_2484_117852" x1="45.5019" y1="38.9799" x2="66.4172" y2="53.1791" gradientUnits="userSpaceOnUse">
            <stop stop-color="#F5A239"/>
            <stop offset="0.45429" stop-color="#F64752"/>
            <stop offset="1" stop-color="#9D00BB"/>
        </linearGradient>
    </defs>
</svg>
