<svg width="81" height="55" viewBox="0 0 81 55" fill="none" xmlns="http://www.w3.org/2000/svg">
    <path d="M56.2507 35.5152L56.8735 34.8834C57.039 34.7182 57.1702 34.5219 57.2598 34.3059C57.3493 34.0899 57.3954 33.8583 57.3954 33.6245C57.3954 33.3906 57.3493 33.1591 57.2598 32.943C57.1702 32.727 57.039 32.5308 56.8735 32.3655L41.7481 17.2401C41.4147 16.9087 40.9637 16.7227 40.4936 16.7227C40.0235 16.7227 39.5725 16.9087 39.2391 17.2401L24.1137 32.3655C23.9482 32.5308 23.817 32.727 23.7274 32.943C23.6379 33.1591 23.5918 33.3906 23.5918 33.6245C23.5918 33.8583 23.6379 34.0899 23.7274 34.3059C23.817 34.5219 23.9482 34.7182 24.1137 34.8834L24.7365 35.5152C24.9018 35.6806 25.098 35.8118 25.314 35.9014C25.5301 35.9909 25.7616 36.037 25.9955 36.037C26.2293 36.037 26.4609 35.9909 26.6769 35.9014C26.8929 35.8118 27.0892 35.6806 27.2544 35.5152L38.296 24.527V53.2208C38.296 53.6927 38.4834 54.1453 38.8172 54.479C39.1509 54.8127 39.6035 55.0002 40.0754 55.0002H40.9652C41.4371 55.0002 41.8897 54.8127 42.2234 54.479C42.5571 54.1453 42.7446 53.6927 42.7446 53.2208V24.527L53.7328 35.5152C53.898 35.6806 54.0943 35.8118 54.3103 35.9014C54.5263 35.9909 54.7579 36.037 54.9917 36.037C55.2256 36.037 55.4571 35.9909 55.6732 35.9014C55.8892 35.8118 56.0854 35.6806 56.2507 35.5152Z" fill="url(#paint0_linear_2484_117883)"/>
    <path d="M69.5789 25.7189C69.1898 19.525 66.7124 13.6458 62.5512 9.0414C58.3899 4.43695 52.7907 1.37916 46.6676 0.367241C40.5444 -0.644676 34.2591 0.449054 28.8377 3.46987C23.4164 6.49069 19.1792 11.2601 16.8179 16.9996C12.0501 17.6728 7.71498 20.1291 4.68702 23.873C1.65905 27.6169 0.163563 32.3698 0.502214 37.173C0.840865 41.9762 2.98845 46.4723 6.51178 49.7543C10.0351 53.0363 14.672 54.86 19.4871 54.8576H24.5052C25.0951 54.8576 25.6609 54.6232 26.078 54.2061C26.4952 53.7889 26.7295 53.2232 26.7295 52.6332C26.7295 52.0433 26.4952 51.4776 26.078 51.0604C25.6609 50.6433 25.0951 50.4089 24.5052 50.4089H19.5138C15.8184 50.284 12.3087 48.7591 9.69558 46.1433C7.08245 43.5274 5.56129 40.016 5.44026 36.3205C5.31922 32.625 6.60736 29.0217 9.04373 26.2404C11.4801 23.4592 14.8825 21.7079 18.5618 21.3415C18.9961 21.3107 19.4119 21.1536 19.758 20.8897C20.1042 20.6257 20.3657 20.2663 20.5103 19.8556C22.3016 14.7372 25.8452 10.4171 30.5143 7.65927C35.1835 4.90143 40.6775 3.88353 46.0248 4.78556C51.372 5.6876 56.2281 8.45147 59.7342 12.5884C63.2403 16.7253 65.1705 21.9688 65.1836 27.3916V27.5696C65.1813 28.1095 65.3762 28.6316 65.7317 29.0379C66.0873 29.4442 66.5789 29.7067 67.1143 29.7761C69.6609 30.119 71.9893 31.3956 73.6479 33.3582C75.3064 35.3207 76.1769 37.8294 76.0905 40.3975C76.004 42.9656 74.9668 45.41 73.18 47.2566C71.3932 49.1032 68.9842 50.2202 66.4203 50.3911L66.1356 50.4356H56.5354C55.9455 50.4356 55.3797 50.67 54.9626 51.0871C54.5455 51.5042 54.3111 52.07 54.3111 52.6599C54.3111 53.2499 54.5455 53.8156 54.9626 54.2328C55.3797 54.6499 55.9455 54.8843 56.5354 54.8843H66.5716C66.7734 54.8815 66.9739 54.8515 67.1677 54.7953C70.6204 54.4588 73.8455 52.9214 76.2808 50.4509C78.7161 47.9804 80.2072 44.7336 80.4941 41.2765C80.7811 37.8194 79.8457 34.3712 77.851 31.533C75.8563 28.6949 72.9288 26.6467 69.5789 25.7456V25.7189Z" fill="#252E39"/>
    <defs>
        <linearGradient id="paint0_linear_2484_117883" x1="31.0104" y1="10.4634" x2="65.9133" y2="31.1137" gradientUnits="userSpaceOnUse">
            <stop stop-color="#F5A239"/>
            <stop offset="0.45429" stop-color="#F64752"/>
            <stop offset="1" stop-color="#9D00BB"/>
        </linearGradient>
    </defs>
</svg>
